<svg width="1752" height="465" viewBox="0 0 1752 465" fill="none" xmlns="http://www.w3.org/2000/svg">
<path fill-rule="evenodd" clip-rule="evenodd" d="M1487.21 280H1627.89L1487.21 122.49V280ZM343.64 110.52C343.64 92.96 338.177 78.12 327.25 66C315.103 52.6667 298.713 46 278.08 46H55V280.01H282.18C302.813 280.01 319.2 273.343 331.34 260.01C342.573 247.897 348.19 233.057 348.19 215.49C348.19 191.263 338.63 173.237 319.51 161.41C335.59 149.297 343.633 132.333 343.64 110.52ZM112.24 135.69V100.64H278.08C285.967 100.64 289.91 106.48 289.91 118.16C289.91 129.847 285.967 135.69 278.08 135.69H112.24ZM112.24 225.38V190.32H281.75C289.617 190.327 293.553 196.17 293.56 207.85C293.553 219.537 289.617 225.38 281.75 225.38H112.24Z" fill="#0D0D0D"/>
<path fill-rule="evenodd" clip-rule="evenodd" d="M533.42 178.93C544.647 164.07 550.26 146.013 550.26 124.76C550.26 103.52 544.647 85.4633 533.42 70.59C521.267 54.1967 504.727 46 483.8 46H334.5C336.987 48.1267 339.357 50.43 341.61 52.91C353.73 66.36 360.76 82.36 362.59 100.64H480.61C490.617 100.633 495.62 108.673 495.62 124.76C495.62 140.847 490.617 148.893 480.61 148.9H354.62C352.927 152.353 350.98 155.657 348.78 158.81L456.92 280H531.59L462.85 203.52H483.8C504.727 203.52 521.267 195.323 533.42 178.93ZM571.99 92.33V280H626.61V119.22L571.99 92.33ZM571.99 46V76.94L626.62 103.83V46H571.99ZM914.06 157.47C901.28 142.95 885.16 135.69 865.7 135.69H718.35C710.75 135.69 706.95 129.923 706.95 118.39C706.95 106.55 710.75 100.63 718.35 100.63H876.59V46H718.79C699.363 46 683.43 53.1333 670.99 67.4C658.543 81.6667 652.32 98.6633 652.32 118.39C652.32 138.117 658.39 154.81 670.53 168.47C683.277 183.037 699.363 190.32 718.79 190.32H865.84C873.427 190.32 877.22 196.163 877.22 207.85C877.22 219.537 873.427 225.377 865.84 225.37H663.7V280.01H865.84C885.26 280.01 901.343 272.747 914.09 258.22C925.93 244.307 931.85 227.517 931.85 207.85C931.85 188.183 925.92 171.39 914.06 157.47Z" fill="#0D0D0D"/>
<path d="M1184.53 161.42C1200.61 149.293 1208.65 132.327 1208.65 110.52C1208.65 92.96 1203.19 78.12 1192.27 66C1180.12 52.6667 1163.73 46 1143.09 46H919.02V100.64H1143.09C1150.98 100.64 1154.93 106.483 1154.93 118.17C1154.93 129.85 1150.98 135.69 1143.09 135.69H918.68C923.367 139.137 927.76 143.187 931.86 147.84L932.03 148.02C946.13 164.59 953.29 184.71 953.29 207.84C953.29 230.98 946.15 251.11 932.06 267.67L931.91 267.83C927.81 272.503 923.42 276.56 918.74 280H1147.19C1167.83 280 1184.22 273.337 1196.35 260.01C1207.58 247.89 1213.2 233.05 1213.2 215.49C1213.2 191.257 1203.64 173.233 1184.53 161.42ZM1146.77 225.37H1000.54V190.32H1146.77C1154.64 190.32 1158.58 196.16 1158.58 207.84C1158.58 219.533 1154.64 225.377 1146.77 225.37Z" fill="#0D0D0D"/>
<path fill-rule="evenodd" clip-rule="evenodd" d="M1210.68 273.16C1225.24 257.4 1232.64 237.99 1232.64 215.49C1232.64 193.36 1225.9 174.54 1212.96 160.02C1222.92 146.3 1228.09 129.54 1228.09 110.52C1228.09 88.08 1220.9 68.72 1206.64 52.91C1204.65 50.7233 1202.56 48.6667 1200.39 46.74V46H1432.81V100.64H1278.48V135.69H1432.81V190.32H1278.48V225.37H1432.81V280H1203.65C1206.1 277.887 1208.44 275.607 1210.68 273.16ZM1699.09 46V280H1682.52V62.57H1627.89V202.61L1487.21 46H1699.09ZM147.08 383.89C147.08 391.497 144.44 397.823 139.16 402.87C133.88 407.923 127.43 410.45 119.81 410.45H55V357.55H74.59V390.85H119.95C124.97 390.85 127.483 388.52 127.49 383.86V353.11C127.49 348.45 124.98 346.12 119.96 346.12H55V326.53H119.81C127.43 326.53 133.88 329.057 139.16 334.11C144.44 339.157 147.08 345.483 147.08 353.09V383.89Z" fill="#0D0D0D"/>
<path fill-rule="evenodd" clip-rule="evenodd" d="M287.32 346.12H217.28V358.69H282.75V378.29H217.28V390.85H287.16V410.45H197.69V326.53H287.32V346.12ZM438.18 384.57C438.18 391.623 436.057 397.643 431.81 402.63C427.237 407.843 421.47 410.447 414.51 410.44H342.02V390.85H414.51C417.23 390.85 418.59 388.757 418.59 384.57C418.59 380.377 417.23 378.28 414.51 378.28H361.77C354.803 378.28 349.037 375.67 344.47 370.45C340.11 365.55 337.93 359.563 337.93 352.49C337.937 345.417 340.17 339.32 344.63 334.2C349.09 329.087 354.803 326.53 361.77 326.53H418.77V346.12H361.62C358.887 346.12 357.523 348.243 357.53 352.49C357.523 356.623 358.887 358.69 361.62 358.69H414.46C421.44 358.69 427.22 361.293 431.8 366.5C436.053 371.493 438.18 377.517 438.18 384.57ZM651.4 410.44H586.42C578.8 410.447 572.323 407.923 566.99 402.87C561.657 397.817 558.99 391.487 558.99 383.88V353.09C558.99 345.483 561.657 339.153 566.99 334.1C572.323 329.053 578.8 326.53 586.42 326.53H651.4V346.12H586.42C581.193 346.12 578.58 348.45 578.58 353.11V383.86C578.58 388.52 581.193 390.85 586.42 390.85H631.81V378.28H591.13V358.69H651.4V410.44ZM791.64 410.44H772.05L721.6 353.95V410.44H702.01V326.52H721.6L772.05 382.69V326.52H791.64V410.44ZM1194.77 384.57C1194.77 391.623 1192.65 397.643 1188.41 402.63C1183.84 407.837 1178.07 410.44 1171.1 410.44H1098.61V390.85H1171.1C1173.82 390.85 1175.18 388.757 1175.18 384.57C1175.18 380.377 1173.82 378.28 1171.1 378.28H1118.37C1111.4 378.28 1105.63 375.667 1101.06 370.44C1096.71 365.547 1094.53 359.56 1094.53 352.48C1094.53 345.407 1096.76 339.313 1101.22 334.2C1105.69 329.087 1111.4 326.527 1118.37 326.52H1175.11V346.12H1118.21C1115.48 346.12 1114.12 348.24 1114.12 352.48C1114.12 356.62 1115.48 358.69 1118.21 358.69H1171.05C1178.03 358.69 1183.81 361.293 1188.39 366.5C1192.64 371.493 1194.77 377.517 1194.77 384.57ZM1407.99 410.44H1343.01C1335.39 410.44 1328.92 407.917 1323.59 402.87C1318.25 397.817 1315.58 391.487 1315.59 383.88V353.09C1315.58 345.483 1318.25 339.153 1323.59 334.1C1328.92 329.047 1335.39 326.52 1343.01 326.52H1407.99V346.12H1343.01C1337.79 346.12 1335.18 348.45 1335.18 353.11V383.86C1335.18 388.52 1337.79 390.85 1343.01 390.85H1388.4V378.28H1347.72V358.69H1407.99V410.44ZM1548.24 410.44H1528.65L1478.2 353.95V410.44H1458.6V326.52H1478.2L1528.65 382.68V326.52H1548.24V410.44ZM1699.09 384.56C1699.09 391.62 1696.97 397.643 1692.72 402.63C1688.15 407.837 1682.39 410.44 1675.42 410.44H1602.93V390.85H1675.42C1678.14 390.85 1679.5 388.753 1679.5 384.56C1679.5 380.373 1678.14 378.28 1675.42 378.28H1622.69C1615.72 378.28 1609.95 375.667 1605.38 370.44C1601.03 365.547 1598.85 359.56 1598.85 352.48C1598.85 345.407 1601.08 339.313 1605.54 334.2C1610.01 329.08 1615.72 326.52 1622.69 326.52H1679.45V346.11H1622.53C1619.8 346.11 1618.44 348.233 1618.44 352.48C1618.44 356.62 1619.8 358.69 1622.53 358.69H1675.37C1682.35 358.69 1688.13 361.293 1692.71 366.5C1696.96 371.493 1699.09 377.513 1699.09 384.56Z" fill="#0D0D0D"/>
<path fill-rule="evenodd" clip-rule="evenodd" d="M971.75 350.95C972.18 357.35 969.86 363.59 965.45 368.15C966.636 369.33 967.66 370.64 968.52 372.08H977.49V387.27H956.56C956.57 383.32 955.96 380.22 952.56 378.01C949.13 376.37 946.17 375.83 942.7 375.79L942.67 375.96C938.07 375.77 934.69 376.02 930.49 377.72C926.93 379.22 925.94 382 925.73 385.59C925.55 388.59 927.12 391.43 929.75 392.88L929.69 392.79C933.48 394.62 936.95 395.18 941.12 395.06H983.24V410.25H941.23C934.51 410.61 926.29 409.03 920.46 405.52C913.73 401.47 910.01 393.08 910.6 385.43C910.42 377.12 913.69 369.63 920.35 365.47C917.5 361.2 916.09 356.12 916.35 350.96C916.02 345.05 918.19 338.12 922.47 333.88C926.7 329.69 933.33 327.11 939.33 326.53V326.13H948.77V326.55C954.19 327.11 960.21 329.25 964.32 332.67C969.48 336.96 972.16 344.38 971.75 350.95ZM963.02 336.51C957.74 331.82 952.11 330.26 945.07 330.06V329.82H943.02V330.04C936.49 330.31 931.36 331.58 926.15 335.51C921.48 339.79 920 344.78 920.05 350.94C920.1 357.9 921.39 361.04 925.98 366.71C921.76 368.76 918.98 370.47 916.72 374.48C914.74 378.31 914.33 381.25 914.24 385.52C914.11 391.98 915.92 397.17 920.98 401.38C927.32 405.49 933.63 406.82 941.11 406.55H979.54V398.76H941.21C932.41 399.12 921.6 395.5 922.09 385.48C921.61 376.05 931.24 372.32 939.27 372.17V358.68L942.61 372.06C950.53 372.14 959.43 375.41 960.22 383.52L973.8 383.57V375.78H966.3C964.32 371.94 963.36 371.07 959.82 368.24C966 362.94 968.1 358.85 968.05 350.97L968.06 350.85C968.37 345.58 966.55 340.42 963.02 336.51Z" fill="#121212"/>
<path d="M969.51 350.98C969.51 358.633 967.117 364.377 962.33 368.21C964.323 369.817 965.893 371.73 967.04 373.95H975.26V385.44H958.02V385.39C958.02 377.763 952.277 373.95 940.79 373.95V373.72H940.73V374.07C929.237 374.07 923.49 377.88 923.49 385.5H923.55C923.55 393.12 929.297 396.93 940.79 396.93H981V408.42H940.79C921.637 408.42 912.06 400.78 912.06 385.5H912C912 376.193 915.563 369.72 922.69 366.08C919.437 362.367 917.81 357.333 917.81 350.98C917.81 337.307 925.47 329.74 940.79 328.28V328C941.783 328 942.74 328.017 943.66 328.05C944.58 328.017 945.537 328 946.53 328V328.28C961.85 329.74 969.51 337.307 969.51 350.98ZM929.3 350.98C929.3 357.987 934.087 361.797 943.66 362.41C953.233 361.797 958.02 357.987 958.02 350.98C958.02 344.007 953.233 340.213 943.66 339.6C934.087 340.213 929.3 344.007 929.3 350.98Z" fill="#0D0D0D"/>
<path fill-rule="evenodd" clip-rule="evenodd" d="M927.84 350.95C927.66 347.11 929.41 343.43 932.51 341.14L932.57 341.11C935.65 339.01 940.37 337.66 944.08 337.73C952.28 337.89 960.7 342.3 960.26 350.96C960.44 354.7 958.68 358.68 955.55 360.84C952.47 362.95 947.74 364.31 944.01 364.24C935.79 364.08 927.39 359.62 927.84 350.95ZM934.64 357.79C937.46 359.57 940.72 360.52 944.06 360.54C947.08 360.48 950.1 359.69 952.8 358.23C955.74 356.46 956.38 354.08 956.57 350.85C956.71 348.24 955.54 345.73 953.45 344.16C950.62 342.4 947.37 341.45 944.04 341.43C941.02 341.49 938.01 342.27 935.3 343.72C932.36 345.47 931.71 347.84 931.53 351.06C931.38 353.68 932.55 356.21 934.64 357.79Z" fill="#121212"/>
<path fill-rule="evenodd" clip-rule="evenodd" d="M509.83 352.79V410.45H490.24V343.15L509.83 352.79ZM509.83 326.52V347.26L490.24 337.62V326.52H509.83ZM1267.31 352.79V410.44H1247.72V343.14L1267.31 352.79ZM1267.31 326.53V347.27L1247.72 337.63V326.53H1267.31Z" fill="#0D0D0D"/>
</svg>
