<svg width="124" height="120" viewBox="0 0 124 120" fill="none" xmlns="http://www.w3.org/2000/svg">
<path fill-rule="evenodd" clip-rule="evenodd" d="M72.1336 45.5168C72.1336 41.5658 70.9007 38.2269 68.4351 35.4999C65.6941 32.5 61.9956 31 57.3395 31H7V83.6514H58.2647C62.9207 83.6514 66.6185 82.1515 69.358 79.1515C71.8929 76.4261 73.1603 73.0871 73.1603 69.1347C73.1603 63.6838 71.003 59.6278 66.6885 56.9669C70.317 54.2414 72.1321 50.4247 72.1336 45.5168ZM19.9166 51.1799V43.2938H57.3395C59.1192 43.2938 60.009 44.6078 60.009 47.2358C60.009 49.8652 59.1192 51.1799 57.3395 51.1799H19.9166ZM19.9166 71.3599V63.4715H58.1677C59.9428 63.473 60.8312 64.7877 60.8327 67.4157C60.8312 70.0452 59.9428 71.3599 58.1677 71.3599H19.9166Z" fill="#0D0D0D"/>
<path fill-rule="evenodd" clip-rule="evenodd" d="M114.959 60.9088C117.492 57.5653 118.759 53.5027 118.759 48.7207C118.759 43.9418 117.492 39.8791 114.959 36.5327C112.216 32.8442 108.484 31 103.762 31H70.071C70.6322 31.4785 71.167 31.9967 71.6755 32.5547C74.4104 35.5809 75.9968 39.1809 76.4097 43.2938H103.042C105.3 43.2923 106.429 45.1013 106.429 48.7207C106.429 52.3402 105.3 54.1506 103.042 54.1521H74.6112C74.2291 54.9291 73.7899 55.6724 73.2934 56.3819L97.6959 83.6492H114.546L99.0341 66.4415H103.762C108.484 66.4415 112.216 64.5972 114.959 60.9088Z" fill="#0D0D0D"/>
</svg>
