<svg width="124" height="120" viewBox="0 0 124 120" fill="none" xmlns="http://www.w3.org/2000/svg">
<path d="M69.1636 5.83945C57.6268 4.77318 46.8136 6.81588 36.7895 12.3262C21.7243 20.6077 12.2109 33.1154 8.84112 49.938C7.14503 58.4053 7.65425 66.8622 10.4238 75.1149C10.5117 75.3768 10.6722 75.6147 10.7829 75.8326C11.4389 76.0218 11.8245 75.5887 12.266 75.3497C13.519 74.6713 14.7414 73.9353 16.0105 73.2889C17.2582 72.6535 18.5526 72.3757 20.0069 72.6184C22.1245 72.9718 22.5896 72.4055 22.151 70.4062C21.2571 66.3308 20.7897 62.216 21.0096 58.0367C21.0564 57.146 21.0164 56.2508 21.0164 55.1545C18.923 56.7123 16.8856 58.0605 16.2646 60.7263C14.5871 58.9289 15.1456 56.7691 17.9705 53.6578C15.9017 53.3156 14.116 53.8876 12.4042 54.8828C12.1195 52.4671 14.1319 51.0107 18.5699 50.3982C18.2804 48.5615 16.7858 47.8764 15.4054 47.0866C17.0547 45.8202 19.556 46.6481 21.8017 49.2501C23.1761 46.9508 25.1551 45.9774 27.8575 46.6277C26.7162 47.6734 25.3027 48.4309 24.8247 50.114C27.4853 49.8667 30.1022 49.5429 31.6076 52.4531C29.84 51.91 28.1686 52.0634 26.3734 52.7708C28.424 53.9437 30.2289 55.1535 30.0835 58.0951C28.619 57.0206 27.4379 55.9345 25.7883 55.4917C26.2919 57.169 26.8813 58.8738 25.5142 60.592C25.0358 58.5091 23.5858 57.0406 22.4746 54.9304C22.0755 59.2887 22.6144 63.1356 23.6378 66.9304C23.9817 68.2056 24.3885 69.4653 24.805 70.7195C25.0735 71.5278 25.5316 71.9528 26.5231 71.6665C28.1782 71.1887 29.9163 71.2335 31.622 71.1041C32.5455 71.034 32.8712 70.6303 32.7998 69.7441C32.6747 68.1913 32.568 66.6357 32.5084 65.0793C32.2018 57.0802 33.881 49.4038 36.3484 41.8532C36.6778 40.8453 37.1812 39.8484 36.9504 38.4195C33.5056 40.7952 29.2688 41.7243 27.2099 45.7195C25.4542 42.7116 27.8484 38.6673 32.9433 35.6774C29.4346 35.2347 25.9364 34.2767 22.3485 35.8421C23.233 31.1679 29.0399 29.1734 35.0362 31.2738C33.5545 27.7561 34.086 26.9277 29.5016 22.8257C32.0189 22.4638 34.0431 23.0907 35.9798 24.4528C37.9153 25.814 38.8163 27.7873 39.6247 30.2048C41.4268 27.5334 43.4716 25.722 46.5683 25.6115C48.2137 25.5529 49.836 25.6356 51.4101 26.5297C48.2391 27.5929 45.8843 29.6696 43.6928 32.1209C46.2127 31.6421 48.6788 31.6787 51.0328 32.678C53.3908 33.679 55.1131 35.3196 55.9602 37.8764C52.6754 36.2819 49.2064 36.2031 45.4315 36.3233C47.7552 37.3814 49.5139 38.7892 50.6606 40.8215C51.8077 42.8543 52.3477 45.0006 51.5281 47.7535C49.8795 44.429 47.3066 42.4255 44.2956 40.1923C45.752 44.0849 46.0498 47.5148 43.0444 50.497C43.308 46.3412 40.5884 43.219 39.6561 39.2967C37.1089 42.6961 34.9546 59.8802 36.4804 65.0254C36.8184 65.1882 37.016 64.9476 37.2103 64.7532C41.8873 60.0757 47.2666 56.2249 52.3556 52.0318C53.161 51.3681 53.7969 51.6511 54.5756 51.9375C55.4237 52.2495 55.5373 52.8489 55.5244 53.6175C55.4958 55.3067 55.5155 56.9966 55.6787 58.7467C57.0325 57.1962 58.5166 55.739 58.7534 53.5807C58.9177 52.0834 59.6826 51.2071 60.981 50.4308C65.5883 47.676 70.127 44.8064 74.6526 41.9199C75.9207 41.111 76.9139 41.1586 78.1006 42.1062C84.8146 47.4682 91.5726 52.7757 98.3193 58.0974C99.3962 58.9468 100.491 59.7736 101.805 60.4067C99.8151 58.2667 97.8257 56.1267 95.7004 53.8407C97.9032 52.5662 100.087 51.711 102.335 51.0044C102.672 50.8987 102.974 51.1307 103.258 51.3081C108.987 54.8904 114.544 58.7077 119.526 63.283C120.469 64.1487 121.541 64.9765 122.007 66.2785C121.322 66.7141 120.715 66.3915 120.131 66.3246C119.014 66.1965 118.624 66.4564 118.798 67.7142C119.395 72.0249 118.938 76.1444 115.825 79.541C113.553 82.0206 110.655 83.4988 107.458 84.4765C100.533 86.5944 93.562 86.2988 86.5666 84.9227C78.6248 83.3603 70.9259 80.8517 63.0686 78.9591C55.5051 77.1373 47.8357 75.949 40.0522 76.0214C29.2185 76.1222 18.7793 78.1902 9.00824 83.047C7.41019 83.8413 7.37373 83.8373 6.68578 82.188C-0.0103247 66.135 0.421868 50.1874 8.36776 34.7855C17.3708 17.3345 31.864 6.42416 51.3272 3.07713C73.7812 -0.78422 92.9957 5.84843 108.328 22.8115C114.591 29.7403 118.533 37.9173 120.895 46.8733C121.298 48.3997 121.514 49.9746 121.835 51.622C121.119 51.4778 121.177 51.0426 121.1 50.7116C117.919 37.1033 110.306 26.3949 99.3244 17.8854C91.5164 11.8349 82.7463 7.94213 72.974 6.30454C71.7562 6.10048 70.5209 6.00036 69.1636 5.83945ZM55.2764 66.2263C54.6299 66.7583 53.3501 67.109 54.0626 68.2113C54.7849 69.3286 55.6347 68.331 56.3849 67.9313C56.4267 67.9091 56.4645 67.8795 56.5046 67.8539C62.9934 63.7195 69.4886 59.5949 75.9633 55.4387C76.7681 54.922 77.3939 54.7906 78.275 55.3651C84.0431 59.1262 89.8677 62.8016 95.5356 66.714C96.3671 67.2879 96.7012 67.9339 96.6855 68.9429C96.6333 72.2978 96.6692 75.6542 96.6747 79.0099C96.6758 79.6808 96.8503 80.2874 97.6484 80.3227C98.4062 80.3562 98.587 79.7165 98.6334 79.1556C98.7267 78.0284 98.7466 76.8935 98.7547 75.7616C98.7711 73.4592 98.7596 71.1566 98.7596 68.9447C99.5759 68.5684 100.545 68.9352 100.741 67.9766C100.868 67.3513 100.277 67.1089 99.8465 66.8281C92.765 62.2105 85.6731 57.6083 78.6094 52.9641C77.658 52.3386 76.9491 52.2779 75.9385 52.9368C69.1361 57.3717 62.2847 61.7325 55.2764 66.2263ZM36.9853 69.8958C37.324 71.502 38.4506 71.2757 39.749 71.0537C39.5787 69.7479 39.7649 68.51 39.8987 67.2671C39.9459 66.8284 39.895 66.4369 39.2969 66.354C37.2434 66.0694 36.3742 66.9744 36.8066 68.98C36.8559 69.2088 36.9003 69.4386 36.9853 69.8958ZM81.1065 65.4278C80.9223 64.6754 81.5784 63.6279 80.4802 63.2053C78.5875 62.4769 77.4849 63.2839 77.5316 65.2476C77.548 65.9366 77.5488 66.7147 78.4792 66.632C79.4045 66.5497 80.7705 67.4247 81.1065 65.4278ZM75.631 63.3015C74.8578 62.9773 74.0533 63.1485 73.2595 63.1552C72.6054 63.1607 72.2902 63.5292 72.3596 64.1384C72.4488 64.92 71.9045 65.9312 72.8829 66.4234C74.61 67.2921 76.0166 66.3472 75.9482 64.4383C75.9367 64.1168 75.8498 63.798 75.631 63.3015ZM75.929 70.7799C75.9341 70.2616 75.9341 69.7433 75.9457 69.2252C75.9621 68.4996 75.5569 68.1375 74.8854 68.2348C74.0299 68.3587 72.8011 67.6709 72.4281 68.9273C72.197 69.7056 71.8833 70.987 72.7752 71.3732C73.6862 71.7676 74.9667 72.0748 75.929 70.7799ZM77.8383 68.4046C77.299 69.1751 77.521 70.0473 77.5931 70.8602C77.6798 71.839 78.5562 71.6019 79.1606 71.573C79.8389 71.5406 80.7501 71.987 81.0702 70.9049C81.649 68.9478 81.0616 68.1689 79.0432 68.2201C78.7134 68.2285 78.3845 68.2706 77.8383 68.4046Z" fill="#4B5563"/>
<path d="M18.4778 88.1464C27.836 87.4346 36.5266 89.5676 44.8087 93.415C51.4219 96.487 57.839 99.981 64.4473 103.064C71.463 106.338 78.8254 108.435 86.6595 108.332C90.5461 108.281 94.3358 107.598 97.9598 106.127C98.2038 106.028 98.4487 105.787 99.0074 106.205C86.8045 114.919 73.338 118.802 58.5437 117.877C34.9463 116.401 18.0226 102.053 11.0074 89.6707C13.3753 88.6765 15.8798 88.5041 18.4778 88.1464Z" fill="#22C55E"/>
<path d="M83.4525 105.735C74.9787 104.743 67.486 101.304 60.1187 97.5235C53.3209 94.0356 46.5868 90.4145 39.263 88.1084C29.8925 85.1578 20.4944 84.6165 11.0433 87.7085C10.3361 87.9398 9.69614 88.1354 9.24542 87.2304C8.88158 86.4998 8.86265 86.041 9.70515 85.6534C14.564 83.418 19.6501 81.9553 24.8993 81.0356C28.7338 80.3637 32.6087 79.9917 36.4912 80.0112C42.8547 80.0432 49.1357 80.8748 55.354 82.2813C62.9839 84.007 70.4066 86.5091 78.016 88.3021C83.7964 89.6642 89.6333 90.6356 95.5922 90.472C102.35 90.2864 108.75 88.8107 114.325 84.7072C115.537 83.8149 116.635 82.7654 117.791 81.784C118.238 82.213 117.872 82.5381 117.758 82.8465C115.624 88.6359 111.331 92.1759 105.78 94.3083C99.4367 96.7451 92.8716 97.0855 86.1871 96.2306C82.4224 95.7492 78.7333 94.9542 74.9514 93.8118C81.4771 97.7199 97.8124 102.105 110.63 94.5566C110.671 94.6354 110.768 94.7525 110.744 94.788C106.283 101.483 100.047 105.122 92.0874 105.848C89.2417 106.108 86.4125 106.045 83.4525 105.735Z" fill="#D1FAE5"/>
<path d="M62.4762 33.5786C61.9725 32.726 61.5154 31.9596 61.0074 31.1077C61.2338 31.0597 61.3877 30.9767 61.4311 31.0252C63.1837 32.9877 65.0837 34.7861 66.532 37.0892C66.6037 37.2033 66.6674 37.3249 66.7281 37.4474C66.9544 37.9045 67.2237 38.3763 66.7268 38.8186C66.1926 39.2942 65.8982 38.7842 65.6317 38.3865C64.584 36.8228 63.5573 35.2403 62.4762 33.5786Z" fill="black"/>
<path d="M84.4606 37.2793C85.8973 34.7488 88.1567 33.0706 90.0074 31.0105C89.8493 32.1938 89.101 33.0769 88.5764 34.0576C87.7886 35.5304 86.8252 36.9003 85.734 38.1683C85.4218 38.531 85.2072 39.3059 84.451 38.892C83.6212 38.4378 84.1534 37.8838 84.4606 37.2793Z" fill="black"/>
<path d="M76.8454 31.0727C77.0797 32.881 77.082 34.5503 76.7049 36.213C76.5986 36.6815 76.4192 37.0583 75.7597 37.0056C75.1966 36.9605 75.0017 36.5791 75.0075 36.1882C75.0231 35.1374 75.0623 34.0836 75.1763 33.0377C75.3873 31.102 75.4403 29.1458 76.0464 27.0105C76.964 28.3922 76.5553 29.7157 76.8454 31.0727Z" fill="black"/>
<path d="M58.8207 43.1738C59.6177 43.6049 60.5306 43.686 61.0074 45.0105C58.7487 44.0706 56.7957 43.2605 55.0074 42.049C56.4242 41.8217 57.5197 42.6522 58.8207 43.1738Z" fill="black"/>
<path d="M95.5725 42.852C94.3281 43.2528 93.2846 44.0628 92.0074 44.0078C93.0695 42.6425 94.5176 42.3919 95.9039 42.0105C96.1863 42.6187 95.8284 42.6486 95.5725 42.852Z" fill="black"/>
</svg>
